<svg xmlns="http://www.w3.org/2000/svg"><symbol id="brachiosaurus" viewBox="0 0 256 256"><path d="M60.6 166.6a31 31 0 0 0-7.6.9c0 .3.3.6.8.9a16 16 0 0 0 1.9 1.1l2.6.9 2.8.9 2.4.6 1.4.2H67l2.5-.4 2.4-.9a4.4 4.4 0 0 0 1.6-1.4 27.7 27.7 0 0 0-6.3-2.2 28.4 28.4 0 0 0-6.6-.6z"/><path d="M128.5 3a125.2 125.2 0 1 0 125.2 125.2A125.2 125.2 0 0 0 128.5 3zm81.6 69.1v.3a3.2 3.2 0 0 1-.1 1.3l-.3 2.1-.3 2.1a8.6 8.6 0 0 1-.3 1.3l-.9 1.8-.6 1.9-.6 2a6.2 6.2 0 0 1-.7 1.9 21.1 21.1 0 0 1-1.6 3 28.5 28.5 0 0 0-1.6 3l-19.6 27.3a1.6 1.6 0 0 1-.3.6l-.2.2-.3.3-.5.5-1.6 2.2-2 2.9-2.2 3.2a33.7 33.7 0 0 0-1.9 3.2 25.3 25.3 0 0 0-1.4 2.9 8 8 0 0 0-.5 2.3c0 .3-.2.5-.2.7s.2.4.2.7c-.2 0-.3.1-.3.4s.1.3.3.4v10a2.2 2.2 0 0 1-.3 1l-.3 1.1a6.7 6.7 0 0 0-.6 1.2c-.1.4-.4.8-.4 1.1v1.6a.5.5 0 0 1-.1.5 2.5 2.5 0 0 1-.4.7c-.1.3-.5.6-.7.8s-.5.4-.5.4v.4l.8.4c.1.2.9.4.9.5v.5a2.2 2.2 0 0 0 0 .8v1.4a19.7 19.7 0 0 1-.7 3.5c-.1 1.2-.5 2.3-.7 3.5s-.5 2.3-.7 3.4-.3 2.3-.3 3.5.1 4.1.3 6.2a37.5 37.5 0 0 0 1.1 6 27.8 27.8 0 0 0 2.1 5.7 23.4 23.4 0 0 0 3.3 5.1l-1.2.9-1.7.6-1.7.5H169l-1.1-.3-1.1-.2-1-.2-.7-.2-.8-.3-.6-.4-.3-.7a26.7 26.7 0 0 0 .1-4 29.7 29.7 0 0 0-.3-4.2c-.1-1.4-.3-2.9-.5-4.3s-.3-2.7-.5-4l-.2-.6c-.1-.3-.1-.5-.2-.6s.1-2.3.1-3.6 0-2.6-.1-3.9a25.7 25.7 0 0 0-.6-4 12.2 12.2 0 0 0-1.4-3.3 3 3 0 0 0-1.4 1.8 19.8 19.8 0 0 0-.8 2.6c-.2 1-.2 1.9-.4 2.9a11.8 11.8 0 0 0-.9 2.3v3.7a17.7 17.7 0 0 0 0 2.3v1.4c0 2.8-.3 5.5-.1 8.2s.2 5.3.5 8.1l.4.3.8.6a2.7 2.7 0 0 1 .8.7.9.9 0 0 1 .3.6c0 .2-.2.5-.8.8a7.5 7.5 0 0 1-1.8.8 8.4 8.4 0 0 1-2 .8l-1.2.4h-.2l-4.7-2.5c-.2-.1-.2-.4-.2-.5v-.6a28 28 0 0 1 0-2.9 28.1 28.1 0 0 0 .1-3 23.1 23.1 0 0 0-.3-3.7c-.1-1.3-.4-2.5-.6-3.7s-.4-2.4-.5-3.7a23.4 23.4 0 0 1-.3-3.8c0-1.2 0-2.3.1-3.3a21.9 21.9 0 0 1 .4-2.7c.1-.9.3-1.8.5-2.8s.4-2 .6-3.1a.8.8 0 0 0 0-.7 2.8 2.8 0 0 1-.1-.8l-1.9.3-1.8.5-1.9.6-1.9.5-1.3.2h-2l-1.1-.2h-6.9a44.3 44.3 0 0 0-5.2-.2h-2.4a3.3 3.3 0 0 0-2.3.9v5.1c-.1 1.7-.1 3.3-.2 5s-.2 3.4-.2 5-.2 3.4-.2 5.2v5c0 .5.7 1.1 1.1 1.6a20.9 20.9 0 0 1 1.4 1.7l1.2 1.7a4.1 4.1 0 0 1 .5 1.8v.4a10.7 10.7 0 0 1-4 .4c.1.4 0 .7-.3.7H116a8.6 8.6 0 0 1-2.3-.2 4.8 4.8 0 0 1-1.8-.8 2.1 2.1 0 0 1-.7-1.8 5.3 5.3 0 0 1 .1-1.3l.3-1.3a2.8 2.8 0 0 0 .3-1.3 5.9 5.9 0 0 0 .2-1.4 22.2 22.2 0 0 0-.3-3.7c-.2-1.2-.4-2.4-.7-3.6s-.5-2.6-.8-3.7-.5-2.3-.7-3.9h-.4c-.2 0-.4.7-.5.9a6.1 6.1 0 0 1-.4.6l-.3.6-1.5 2.2-1.5 2.2a24.4 24.4 0 0 0-1 2.4 8 8 0 0 0-.4 2.7 4.5 4.5 0 0 0 .3 1.6 10.1 10.1 0 0 0 .7 1.5l.7 1.1a1.5 1.5 0 0 1 .3.6.8.8 0 0 1-.4.7 4.6 4.6 0 0 1-1 .5l-1.3.2h-4.2l-1.1-.4a2.2 2.2 0 0 1-.7-.9 7.6 7.6 0 0 1-.5-1.6l-.5-1.5a5.1 5.1 0 0 1-.3-1.7 4.3 4.3 0 0 1 .4-1.4l.9-1.6 1.1-1.6a10 10 0 0 0 .8-1.4l2.4-5.8 2.4-5.8.5-.7.5-.7.4-.8a1.1 1.1 0 0 0 .2-.8q0-.6-.3-.6h-1.3l-8.8 2.4a3.2 3.2 0 0 1-1.3.5l-1.7.4a4.4 4.4 0 0 0-1.6.6 1 1 0 0 0-.7 1 1.2 1.2 0 0 0 .3.9l.6.7.8.5a2.4 2.4 0 0 1 .8.6l-.4.4-1.3-.8-1.4-.8a4.7 4.7 0 0 0-1.5-.6 3.5 3.5 0 0 0-1.4-.1 16.5 16.5 0 0 0-3.8.5l-3.9 1.2-4 1.1a20.1 20.1 0 0 1-4.2.5 17.7 17.7 0 0 1-3.4-.4l-4.8-1.1-5.3-1.7a37.5 37.5 0 0 1-4.9-2.3 15.2 15.2 0 0 1-3.7-2.6 4.2 4.2 0 0 1-1.4-2.9 4.4 4.4 0 0 1 1.1-3.2 6.3 6.3 0 0 1 2.7-1.6c1.1-.4 2.3-.1 3.5-.2s2.3.3 3.3.3h3.9a2.2 2.2 0 0 1 1.2-.2h2.3l2.5.3 2 .3 1.9.5 1.8.9 1.8.7a5.8 5.8 0 0 0 1.9.3 8.8 8.8 0 0 0 4-1 29.2 29.2 0 0 0 4-2.5c1.4-1 2.6-2 3.9-3.1a32.9 32.9 0 0 1 3.2-2.7l1.8-1.2 1.8-1.1a10.4 10.4 0 0 0 1.7-1.2 6.1 6.1 0 0 0 1.5-1.7 39.1 39.1 0 0 0 2.6-4.4 28.2 28.2 0 0 1 2.6-4.4l1.3-1.3 1.5-1 1.6-.8 1.6-.9c1.3-.8 2.4-1.7 3.6-2.6l3.4-2.9 3.3-3 3.4-2.8a27.1 27.1 0 0 1 3.7-2.1l3.9-1.9 2.4-1.2 2.5-1.3 2.5-1.1a11.2 11.2 0 0 1 2.6-.8l22.1-3.2a11.2 11.2 0 0 0 3.4-1.1 14.6 14.6 0 0 0 3.3-2.2 27.9 27.9 0 0 0 3.2-2.8l2.9-3.2 2.6-3.2 2.3-2.7 7.6-8.9.3-.2.5-.6.5-.5c.2-.2.3-.2.3-.3l2-3.2h.2l.4-.3.4-.2c.1-.1.2-.1.2-.2l.4-.4.4-.4c.3-.5.8-1 1.2-1.7l1.4-1.9 1.2-1.9a18.1 18.1 0 0 0 1-1.7 16.7 16.7 0 0 0 .8-2 17.2 17.2 0 0 0 .7-2.1c.2-.7.5-1.4.8-2.2s1-1.4 1-2.1v-6a5.3 5.3 0 0 0-1.1-3.1 12 12 0 0 0-5.9-4.3 8.1 8.1 0 0 0-3.2-.7 21.2 21.2 0 0 0-5.7.7 10.5 10.5 0 0 0-5 2.6 6.4 6.4 0 0 0-1.5 1.4c-.5.5-1 1.2-1.5 1.8l-1.8 2-1.8 1.8a10.2 10.2 0 0 1-1.8 1.3 4.1 4.1 0 0 1-1.7.5 1.7 1.7 0 0 1-1.2-.5 1.6 1.6 0 0 1-.5-1.1v-.4a4.3 4.3 0 0 0 .1-.5c.1-.2.1-.5.2-.7s.1-.6.1-.8a1.1 1.1 0 0 0 .1-.5 7.8 7.8 0 0 0-.2-1.6l-.6-1.4c-.3-.4-.4-.8-.6-1.1a2.8 2.8 0 0 1-.3-1.3c.4 0 .7 0 .9-.2l.4-.6c.1-.3.3-.5.4-.8l.8-.6h2.8c.5 0 .8-.1.9-.4l.7-.6c.1-.1.2 0 .3 0h.1l.3.4c0 .2.1.3.1.4a.8.8 0 0 1 .4-.4l.7-.3 1.1-.7 1.3-.8 1.3-.8 1.1-.6.5-.4 2.1-1.2a6.4 6.4 0 0 1 1.8-.6 10.8 10.8 0 0 1 1.9-.3h6.3l1.5.5 1.5.3 1.5.3 1.5.5a14.8 14.8 0 0 1 4.5 3 18.1 18.1 0 0 1 3.2 4.1 21.1 21.1 0 0 1 1.7 5 24.6 24.6 0 0 1 .4 5.4v.7a2.2 2.2 0 0 1 0 .8z"/></symbol><symbol id="micropachycephalosaurus" viewBox="0 0 256 256"><path d="M132.8 150.4c-.3 0-.4.2-.4.6h-.1a.5.5 0 0 0-.5.5c0 .4.2.6.5.6s.4-.2.4-.6h.1c.3 0 .5-.1.5-.5s-.2-.6-.5-.6zm1.4-.7a2.7 2.7 0 0 0-.8.7h.3l1.1-.3a2.7 2.7 0 0 0 .8-.7h-.3zm3-2.6c-.2 0-.4.2-.4.6h-.1c-.3 0-.4.2-.4.5h-.1c-.3 0-.5.2-.5.6s.2.6.5.6.4-.2.4-.6h.1c.3 0 .5-.2.5-.6.4 0 .5-.2.5-.5s-.1-.6-.5-.6zm22.9-5.8c-.4.6-.9 1-1.2 1.4s.4.9.8 1a1.8 1.8 0 0 0 1.1.2 2 2 0 0 0 1.4-.5 4 4 0 0 0 1-1.2c.3-.4.5-.9.8-1.4s.3-1.2.4-1.2h-3.3c-.2 0-.5 1.1-1 1.7z"/><path d="M128.3 2.5a125.2 125.2 0 1 0 125.2 125.2A125.1 125.1 0 0 0 128.3 2.5zm93.9 74.3l-1.5.3H217l-5.1 1.2a20.4 20.4 0 0 0-3.6 1.6 10.3 10.3 0 0 0-2.5 2.1 15.8 15.8 0 0 0-1.7 2.9c-.5 1.1-1 2.4-1.5 3.8s-1 3.1-1.6 5l-1.2 3.4-1.2 3.1a29.2 29.2 0 0 1-1.4 3.1 25.8 25.8 0 0 1-1.8 3.2 23 23 0 0 1-2.6 4 35.1 35.1 0 0 1-2.9 3.6l-3 3.5c-1.1 1.2-2.1 2.5-3.1 3.8a13.4 13.4 0 0 0-1.4 2.6l-.9 2.6a9.2 9.2 0 0 1-1.3 2.1 5.7 5.7 0 0 1-2.5 1.6l-1.3.6-2 .6-2 .6-1.3.4a2.8 2.8 0 0 1 .1 2 2.4 2.4 0 0 1-.8.9l-1.2.6a1.8 1.8 0 0 0-.9 1l-2.2 6.6a2.7 2.7 0 0 1-1.1 1.5 6.7 6.7 0 0 1-1.7.8 12.3 12.3 0 0 1-2 .2 9.7 9.7 0 0 1-1.8-.1h-.8a3.9 3.9 0 0 1-1.1 0c-.3-.1-.5-.3-.5-.8a.5.5 0 0 1 .2-.4l.2-.3.2-.2a.6.6 0 0 0 .1-.4v-.2a21.1 21.1 0 0 0-3.4 1.6l-3.3 2-3.3 2.2-3.3 1.9-.9.5-1.1.5-1 .8a1.3 1.3 0 0 0-.4 1v.6l1.8 1.6 1.9 1.7 2 1.6 2.1 1.2 1.8.7 1.9.5 1.8.6 1.7.9a8.6 8.6 0 0 1 1.3 1.4l1.1 1.5a17.1 17.1 0 0 0 1.1 1.4 6.4 6.4 0 0 0 1.5 1.3l1.6.6 2.1.6a9.5 9.5 0 0 1 1.7 1 2.1 2.1 0 0 1 .8 1.7.8.8 0 0 1-.1.3v.2l-5.6 1.1a2.3 2.3 0 0 0-1 .4 2.1 2.1 0 0 1-1.2.3h-.5l-1.2-.6-1.7-1-1.6-1-1.1-.7-.2-.2-.3-.5-.3-.6-.3-.4-2.2-4.5-1.1-.4-1.8-.7-2.1-.9-2.1-1-1.8-.8-1.1-.6-2.7-1.5a27.5 27.5 0 0 1-2.6-2.2 12.4 12.4 0 0 1-1.9-2.6 8.9 8.9 0 0 1-1.1-3.1l-.5.2-.6.4-.9.6-1.7 1.2-2 1.4-2.1 1.3-1.8 1.1-.9.5-5.9 3.5a26.1 26.1 0 0 0-4.5 3.3 17 17 0 0 0-3.5 4.4c-.9 1.7-.7 3.8-2.4 6.5v1.6a8.4 8.4 0 0 0 1.2 4.3 7.8 7.8 0 0 0 2.1 2.6 7.5 7.5 0 0 0 2.5 1.3l2.6 1a4.4 4.4 0 0 1 1.9 1 5.3 5.3 0 0 1 .8 2h-13.1l-.2-.4c-.1-.2-.2-.2-.3-.2l-.5-.2c-.2-.1-.4-.1-.6-.3a3.7 3.7 0 0 1-1.3-1.5 7.8 7.8 0 0 1-.4-2.1 8.6 8.6 0 0 1 .2-2.3c0-.8.2-1.5.2-2.1v-1.4a7.5 7.5 0 0 1 .3-1.7c.2-.8.3-1.7.6-2.7s.4-2 .7-3.1.6-2.1.8-3.1.5-1.9.7-2.6.3-1.4.4-1.8.4-1.4.6-1.9l1-1.9a16 16 0 0 0 4.5-2.5 33.4 33.4 0 0 0 3.2-3.3l2.8-3.3a14.5 14.5 0 0 1 3.4-3.1l1.4-.7 2-.8 2.3-.9 2.1-1.1a7.5 7.5 0 0 0 1.6-1.3 2.5 2.5 0 0 0 .6-1.6v-1.3a1.7 1.7 0 0 0-.6-1.2l-.8-.2-1.2-.6-1.1-.5-.8-.3a9.4 9.4 0 0 1-2-1.2l-2.6-1.9a23.6 23.6 0 0 0-2.5-1.5 3.4 3.4 0 0 0-1.7-.6h-7.8c-5.9 0-11.7-.1-17.4.1s-11.5.2-17.4.2c-4.3 0-8.5-.1-12.7-.4a98.9 98.9 0 0 1-12.2-1.3 81.3 81.3 0 0 1-11.8-2.9 64.5 64.5 0 0 1-11.6-5l-1.4-.7-1.6-1a4.6 4.6 0 0 1-1.2-1.2 2.5 2.5 0 0 1-.6-1.6 5.9 5.9 0 0 1 2.1.4l2.4.9 2.1 1 1.5.6c1.4.6 3 1.1 4.6 1.6s3.3 1 5 1.5l5 .9a27.4 27.4 0 0 0 4.8.4h26.2l2.5-.4 3.3-.5 3.6-.6 3.3-.6 2.7-.6 6.8-1.3c2.4-.4 4.8-1 7.2-1.6l7.2-2a63.6 63.6 0 0 0 6.5-2.8l3.7-1.7a30.8 30.8 0 0 1 3.8-1.6 25.5 25.5 0 0 1 3.9-1.3 27.1 27.1 0 0 1 4.1-.9l1-.2h3.5l1-.2 1.9-.3 3.3-.7 4-.9 4-.9c1.2-.3 2.3-.9 3.2-1.1s1.6-.7 1.9-.7h2.7a13.3 13.3 0 0 1 2 0h1.7a68.2 68.2 0 0 1 7.9.7c2.5.2 5.1.5 7.7.5a10.1 10.1 0 0 0 5-1.3 22.6 22.6 0 0 0 4.4-3.4 30.5 30.5 0 0 0 3.8-4.9 44.8 44.8 0 0 0 3.2-5.6 52.5 52.5 0 0 0 2.5-5.5c.8-1.8 1.3-3.3 1.8-4.7s.8-2.3 1.1-3.4.7-2.2 1-3.1a10.3 10.3 0 0 1 1.2-2.6 5.2 5.2 0 0 1 1.7-1.9 7.6 7.6 0 0 1 2.6-1.6 12.7 12.7 0 0 1 3.7-.8h3.1c.7 1.6 1.7.9 2.9 1.3a36.8 36.8 0 0 1 3.5 1.5 16 16 0 0 1 2.9 1.8 2.9 2.9 0 0 1 1.3 2.1 2 2 0 0 1-.5 1.4 3.1 3.1 0 0 1-1.1.6z"/></symbol><symbol id="velociraptor" viewBox="0 0 256 256"><path d="M128.7 3a125.2 125.2 0 1 0 125.1 125.2A125.1 125.1 0 0 0 128.7 3zm108.2 114.2h-7.2a87.2 87.2 0 0 1-9-.5l-9-.9-9-1a89 89 0 0 0-9-.4 123.8 123.8 0 0 0-16 1 68.1 68.1 0 0 0-15.6 3.6L132 129.9c-.4.1-.8.7-1.2 1.5s-.5 1.7-.8 2.7l-.6 2.8a8.5 8.5 0 0 1-.6 1.9 3 3 0 0 0 1.4 1.3l2.4 1.2 2.8 1.1a17.1 17.1 0 0 1 2.7 1.4 7.8 7.8 0 0 1 2.1 1.9 4.1 4.1 0 0 1 .8 2.4 1.7 1.7 0 0 1-.5 1.2l-1.2.9-1.5.7a6 6 0 0 0-1.6.8 4 4 0 0 0-1.2 1 2 2 0 0 0-.5 1.5 3.4 3.4 0 0 0 .8 2.5 5.8 5.8 0 0 0 1.9 1.5 17.1 17.1 0 0 0 2.3 1.3 8.7 8.7 0 0 1 2.1 1.7 20.1 20.1 0 0 1 2 3.4 23.2 23.2 0 0 1 1.3 3.7c.3 1.2.5 2.4.7 3.7s.1 2.6.3 3.9l1.3 1.3v7.1c0-.1.5-.1.8 0h1l1 .3c.3 0 .5.1.5.2a3.2 3.2 0 0 1 .1.8 3.8 3.8 0 0 1-.1 1l-.3 1.2a3.1 3.1 0 0 1-.7.9.8.8 0 0 1-.8.3h-5.1c-.2 0-.5-.5-1-.8l-1.5-.8-1.5-.8c-.5-.3-.9-.8-1.2-.8h-6a5.2 5.2 0 0 1 .6-3 4.6 4.6 0 0 1 1.6-1.5l2.1-.6 2.1-.4a3.8 3.8 0 0 0 1.6-.6 1.4 1.4 0 0 0 .6-1.3v-.6a17.8 17.8 0 0 1-.8-1.8l-1.3-2.4c-.4-.8-1-1.6-1.5-2.4a7.1 7.1 0 0 0-1.5-1.8l-1.3-.8-1.8-.9-1.8-1a2.2 2.2 0 0 1-.9-1.1c-.3-.8-.6-1.8-.9-2.9a30.1 30.1 0 0 0-1.1-3.2 7.4 7.4 0 0 0-1.7-2.5 3.7 3.7 0 0 0-2.8-1 24.6 24.6 0 0 0-6 .7 38.3 38.3 0 0 0-5.6 2.3 24.3 24.3 0 0 0-4.9 3.5 21.1 21.1 0 0 0-3.9 4.5h-.6l-.2-.4-.2-.6c0-.2-.1-.4-.1-.6s-.1-.3-.2-.3h-.2a1.4 1.4 0 0 0-1.1.5l-.9 1.1a5.7 5.7 0 0 1-.8 1.3 2.1 2.1 0 0 1-.8 1 3.2 3.2 0 0 1-.6-1.6 7.6 7.6 0 0 1-.1-1.6 9.2 9.2 0 0 1 .4-2.9 27.6 27.6 0 0 1 .8-2.7 15.2 15.2 0 0 0 .9-2.5 15.9 15.9 0 0 0 .4-2.8h-4.7c0-1.6.2-1.7.6-2.3a4.9 4.9 0 0 1 1.6-1.6 6.6 6.6 0 0 1 2.1-.8l2.1-.3a14.2 14.2 0 0 1 2.9.2l2.9.4 2.9.5 2.8.2h2.3a2.3 2.3 0 0 0-1.7-1.3 9.2 9.2 0 0 0-2.5-.5l-2.6-.2c-.9 0-1.6.2-2.2-.2l-3.8-2.1h-.3a16.3 16.3 0 0 0-3.1-.1 10.6 10.6 0 0 1-3.1.2 7.3 7.3 0 0 1-3-.7l-2.5-1.3-2.6-1.6a5.2 5.2 0 0 0-2.9-.6v6l1.6-.2 1-.3.9-.5c.3-.2.3-.4.8-.6l.6-.2v2.7l2-.6c0 .1.2.2.2.5s.1.3.1.5a5.5 5.5 0 0 1-1.3 3.8 17.8 17.8 0 0 1-3.2 2.8 18.8 18.8 0 0 0-4.5-1.2l-4.7-.7v-7.6l-1.7.5-2 1a6.8 6.8 0 0 0-1.9 1.1c-.5.4-.9.8-.9 1.2v6.8a9.3 9.3 0 0 0 2.9-.3l1.8-.6 1.2-.6 1.2-.2h.4l.2.7c.2.4.3.8.5 1.3l.4 1.2a8.4 8.4 0 0 1 .2 1 7.2 7.2 0 0 1-.4 1.9 9.9 9.9 0 0 1-1.1 1.7 5 5 0 0 1-1.5 1.4 4.1 4.1 0 0 1-1.8.5h-1l-3-.5a22.9 22.9 0 0 1-3.6-.7 15.2 15.2 0 0 1-3.2-1.2 2.6 2.6 0 0 1-1.4-2.1v-11.6l.9-.8 1.8-1.6 2.4-2.1a27.3 27.3 0 0 0 2.3-2.5 31 31 0 0 0 1.8-2.6 5.4 5.4 0 0 0 .7-2.6 4 4 0 0 0-1.1-2.7 11.8 11.8 0 0 0-2.8-2l-3.2-1.4-2.5-.9-1.3-8.9a14.7 14.7 0 0 0-.6-2.7 8.1 8.1 0 0 0-1.1-2.7 6.8 6.8 0 0 0-1.7-2.1 3.9 3.9 0 0 0-2.6-.9 12.5 12.5 0 0 0-3.6.5 13 13 0 0 0-3.2 1.5l-1.6 1-2.5 1.4-2.9 1.8-2.9 1.7c-1 .5-1.8 1.2-2.5 1.6s-1.3 1.1-1.6 1.1h-1l-1.7-.2-2.1-.4a2.7 2.7 0 0 1-1.3-.7c-.5-.3-.4-.8-.4-1.4v-1.8c0-.6-.2-.9.1-.9h1.5v-.4c.1-.2.1-.5.2-.8s.1-.6.1-.8a1.8 1.8 0 0 0 .1-.5c-.3-.4-.5-.7-.8-.8l-.9-.5-.7-.7a1.7 1.7 0 0 1-.3-1.2 2.7 2.7 0 0 1 .3-1.2 3.4 3.4 0 0 1 .7-1.1c.2-.4.2-.6.6-.9l.8-.3v.8c0 .5.4 1 .5 1.4a1.2 1.2 0 0 0 1.2.7 1.9 1.9 0 0 0 1.1-.4 4.8 4.8 0 0 0 .9-1.1 6.4 6.4 0 0 0 .6-1.6c.2-.5.3.2.3-1.4h-12c-.3 0-.5-.2-.9-.5l-1-.6a3.6 3.6 0 0 1-.9-.8 1.3 1.3 0 0 1-.4-1 4.6 4.6 0 0 1 1.1-3.2 7.4 7.4 0 0 1 2.5-1.7 11.9 11.9 0 0 1 3.2-1l2.8-.8 2.1-1 3.3-1.5a25.3 25.3 0 0 0 3.3-1.7 11 11 0 0 1 2.2-1h13.4a7 7 0 0 1 3.8 1 14.2 14.2 0 0 1 3.1 2.5 27.2 27.2 0 0 1 2.5 3.2c.7 1.2 1.5 2.3 2.2 3.3l2.2 2.5a4.2 4.2 0 0 0 2.5 1 1 1 0 0 0 .8-.4c.1-.3.4-.4.8-.4a4 4 0 0 1 1.5.3l1.5.7 1.5.7a4 4 0 0 0 1.5.3l4.1-.2 4-.4 4-.5a28.3 28.3 0 0 1 4.1-.3c2.5 0 4.9.2 7.2.4a38 38 0 0 1 7.1 1.6 40.1 40.1 0 0 1 5 2l5 2.1a50.8 50.8 0 0 0 5.1 1.7 20 20 0 0 0 5.4.7h2.5l12.7-2.7c4.2-.8 8.4-1.6 12.6-2.2s8.5-1.2 12.7-1.6 8.6-.5 13-.5h8.7a48.4 48.4 0 0 1 4.9.9l35.9 7.2H244c-.8 0-1.8.9-3.1 1.3a17.6 17.6 0 0 1-4 .2z"/></symbol></svg>